<svg width="387" height="233" viewBox="0 0 387 233" fill="none" xmlns="http://www.w3.org/2000/svg">
<path d="M386.163 163.034C386.163 174.612 383.162 185.761 377.158 196.482C371.155 206.988 362.149 215.671 350.143 222.532C338.136 229.394 323.449 232.824 306.082 232.824C284.426 232.824 264.272 228.107 245.618 218.673C244.332 218.03 243.474 217.172 243.045 216.1C242.831 215.028 242.831 214.278 243.045 213.849L259.448 177.507C259.662 177.292 259.984 176.649 260.413 175.577C260.841 174.505 261.806 173.647 263.307 173.004C264.379 173.004 266.952 173.755 271.026 175.255C277.887 177.399 283.997 179.115 289.358 180.401C294.718 181.688 300.614 182.331 307.046 182.331C314.122 182.331 320.554 181.259 326.343 179.115C332.347 176.971 335.348 173.004 335.348 167.215C335.348 165.929 335.241 164.964 335.027 164.321C334.384 160.247 331.489 156.387 326.343 152.742C321.412 149.098 313.479 144.273 302.544 138.27C290.108 131.623 279.817 125.513 271.669 119.938C263.736 114.363 256.66 107.609 250.443 99.6763C244.439 91.5288 241.223 82.202 240.794 71.696C239.936 47.8966 246.905 30.1007 261.699 18.3082C276.708 6.3013 295.79 0.297852 318.946 0.297852C336.099 0.297852 353.359 3.51398 370.726 9.94624C371.798 10.1606 372.548 10.6967 372.977 11.5543C373.62 12.4119 373.835 13.2696 373.62 14.1272L360.756 53.6856C359.898 56.0441 359.255 57.4378 358.826 57.8666C358.397 58.2954 357.432 58.4026 355.932 58.1882C349.714 55.4009 342.745 53.1496 335.027 51.4343C327.522 49.5047 320.447 48.5398 313.8 48.5398C307.154 48.5398 301.793 49.7191 297.72 52.0775C293.646 54.4361 291.609 58.1882 291.609 63.334C291.609 65.2637 291.716 66.7646 291.931 67.8366C292.788 72.1248 295.683 75.9841 300.614 79.4147C305.546 82.8452 313.479 87.5622 324.414 93.5656C337.064 99.9979 347.462 106.001 355.61 111.576C363.972 117.151 371.155 124.226 377.158 132.802C383.162 141.379 386.163 151.456 386.163 163.034Z" fill="white"/>
<path d="M303.305 2.0049C303.74 2.87453 303.848 3.63545 303.631 4.28767L209.059 228.326C208.624 229.631 207.863 230.283 206.776 230.283C205.906 230.283 205.145 229.739 204.493 228.652L149.054 111.252L93.9416 228.652C93.5068 229.739 92.7458 230.283 91.6588 230.283C90.5718 230.283 89.8108 229.631 89.376 228.326L0.673767 3.96156L0.347656 2.65711C0.347656 1.78748 0.565064 1.13526 0.999879 0.700451C1.6521 0.265629 2.30432 0.0482178 2.95655 0.0482178H55.4605C56.5475 0.0482178 57.3084 0.700444 57.7432 2.0049L96.8766 108.643L150.033 1.67879C150.685 0.591742 151.446 0.0482178 152.315 0.0482178C153.403 0.0482178 154.163 0.591742 154.598 1.67879L201.558 108.643L245.909 2.65711C245.909 2.43971 246.018 2.2223 246.236 2.0049C246.453 1.78749 246.562 1.67879 246.562 1.67879C247.214 1.02656 247.975 0.700451 248.844 0.700451H301.022C301.674 0.700451 302.327 1.02656 302.979 1.67879L303.305 2.0049Z" fill="#FC4D33"/>
</svg>
