<svg width="1353" height="236" viewBox="0 0 1353 236" fill="none" xmlns="http://www.w3.org/2000/svg">
<path d="M302.957 5.00496C303.392 5.87459 303.501 6.63551 303.283 7.28772L208.711 231.326C208.276 232.631 207.515 233.283 206.428 233.283C205.559 233.283 204.798 232.739 204.146 231.652L148.707 114.252L93.5939 231.652C93.1591 232.739 92.3982 233.283 91.3111 233.283C90.2241 233.283 89.4632 232.631 89.0284 231.326L0.326111 6.96162L0 5.65717C0 4.78754 0.217407 4.13532 0.652222 3.70051C1.30444 3.26569 1.95667 3.04827 2.60889 3.04827H55.1128C56.1998 3.04827 56.9608 3.7005 57.3956 5.00496L96.5289 111.643L149.685 4.67885C150.337 3.5918 151.098 3.04827 151.968 3.04827C153.055 3.04827 153.816 3.5918 154.251 4.67885L201.211 111.643L245.562 5.65717C245.562 5.43976 245.67 5.22236 245.888 5.00496C246.105 4.78755 246.214 4.67885 246.214 4.67885C246.866 4.02662 247.627 3.70051 248.497 3.70051H300.675C301.327 3.70051 301.979 4.02662 302.631 4.67885L302.957 5.00496Z" fill="#FC4D33"/>
<path d="M344.636 90.4461L405.945 90.12C406.814 90.12 407.467 90.4461 407.901 91.0983C408.554 91.5331 408.88 92.0766 408.88 92.7289V140.667C408.88 141.319 408.554 141.972 407.901 142.624C407.467 143.059 406.923 143.276 406.271 143.276L344.636 143.602V178.17H418.011C419.968 178.17 420.946 179.04 420.946 180.779V228.391C420.946 230.13 419.968 231 418.011 231H292.132C291.48 231 290.828 230.783 290.175 230.348C289.74 229.913 289.523 229.261 289.523 228.391V5.33106C289.523 4.67884 289.74 4.13532 290.175 3.70051C290.828 3.04828 291.48 2.72217 292.132 2.72217H418.011C418.881 2.72217 419.533 3.04828 419.968 3.70051C420.62 4.13532 420.946 4.67884 420.946 5.33106V53.2694C420.946 53.9216 420.62 54.5739 419.968 55.2261C419.533 55.6609 418.881 55.8783 418.011 55.8783H344.636V90.4461Z" fill="#FC4D33"/>
<path d="M594.126 165.012C594.126 176.752 591.082 188.057 584.995 198.928C578.907 209.581 569.776 218.386 557.602 225.343C545.427 232.3 530.534 235.778 512.924 235.778C490.966 235.778 470.53 230.995 451.615 221.43C450.311 220.777 449.441 219.908 449.006 218.821C448.789 217.734 448.789 216.973 449.006 216.538L465.638 179.687C465.856 179.47 466.182 178.818 466.616 177.731C467.051 176.644 468.03 175.774 469.551 175.122C470.639 175.122 473.247 175.883 477.378 177.404C484.335 179.579 490.531 181.318 495.966 182.622C501.402 183.927 507.38 184.579 513.903 184.579C521.077 184.579 527.599 183.492 533.469 181.318C539.557 179.144 542.6 175.122 542.6 169.252C542.6 167.947 542.492 166.969 542.274 166.317C541.622 162.186 538.687 158.273 533.469 154.577C528.469 150.881 520.425 145.989 509.337 139.902C496.727 133.162 486.292 126.966 478.03 121.313C469.986 115.661 462.812 108.812 456.507 100.768C450.42 92.5069 447.159 83.0496 446.724 72.3967C445.854 48.2645 452.92 30.2196 467.921 18.2622C483.139 6.08741 502.489 0 525.969 0C543.361 0 560.863 3.26111 578.473 9.78333C579.56 10.0007 580.321 10.5442 580.755 11.4139C581.408 12.2835 581.625 13.1531 581.408 14.0228L568.363 54.1344C567.494 56.5259 566.841 57.9391 566.407 58.3739C565.972 58.8087 564.993 58.9174 563.472 58.7C557.167 55.8737 550.101 53.5909 542.274 51.8517C534.665 49.895 527.491 48.9167 520.751 48.9167C514.011 48.9167 508.576 50.1124 504.445 52.5039C500.315 54.8954 498.249 58.7 498.249 63.9178C498.249 65.8745 498.358 67.3963 498.575 68.4833C499.445 72.8315 502.38 76.7448 507.38 80.2234C512.381 83.7019 520.425 88.4848 531.513 94.5723C544.34 101.094 554.884 107.182 563.145 112.834C571.624 118.487 578.907 125.662 584.995 134.358C591.082 143.054 594.126 153.272 594.126 165.012Z" fill="#383838"/>
<path d="M770.922 2.60888C771.574 2.60888 772.226 2.93499 772.878 3.58722C773.313 4.02202 773.53 4.67424 773.53 5.54388V228.278C773.53 229.147 773.204 229.8 772.552 230.235C772.117 230.669 771.574 230.887 770.922 230.887H717.113C715.374 230.887 714.504 230.017 714.504 228.278V141.858H652.217V228.278C652.217 229.147 651.891 229.8 651.239 230.235C650.804 230.669 650.26 230.887 649.608 230.887H595.8C595.148 230.887 594.495 230.669 593.843 230.235C593.408 229.8 593.191 229.147 593.191 228.278V5.54388C593.191 4.67424 593.408 4.02202 593.843 3.58722C594.495 2.93499 595.148 2.60888 595.8 2.60888H649.608C650.26 2.60888 650.804 2.93499 651.239 3.58722C651.891 4.02202 652.217 4.67424 652.217 5.54388V91.6372H714.504V5.21777C714.504 4.56554 714.722 4.02202 715.157 3.58722C715.591 2.93499 716.244 2.60888 717.113 2.60888H770.922Z" fill="#383838"/>
<path d="M979.197 60.0044C989.415 77.397 994.524 96.5289 994.524 117.4C994.524 137.836 989.415 156.751 979.197 174.143C969.414 191.536 955.608 205.45 937.781 215.886C919.519 226.321 900.387 231.539 880.385 231.539C859.514 231.539 840.491 226.321 823.316 215.886C805.923 205.45 792.118 191.536 781.9 174.143C771.464 156.751 766.246 137.836 766.246 117.4C766.246 96.7463 771.356 77.7232 781.574 60.3306C791.792 42.5032 805.706 28.4804 823.316 18.2622C840.709 8.04406 859.732 2.93498 880.385 2.93498C901.039 2.93498 920.062 8.04406 937.455 18.2622C955.065 28.4804 968.979 42.3944 979.197 60.0044ZM932.563 148.381C937.781 138.162 940.39 127.401 940.39 116.096C940.39 105.443 937.672 95.4419 932.237 86.0934C927.019 76.7448 919.845 69.2443 910.714 63.5917C901.365 57.9391 891.256 55.1128 880.385 55.1128C869.515 55.1128 859.406 57.9391 850.057 63.5917C840.926 69.2443 833.643 76.7448 828.208 86.0934C822.772 95.4419 820.055 105.877 820.055 117.4C820.055 128.488 822.664 138.815 827.882 148.381C833.099 157.512 840.491 165.012 850.057 170.882C859.623 176.535 869.732 179.361 880.385 179.361C891.256 179.361 901.365 176.535 910.714 170.882C919.845 165.23 927.128 157.729 932.563 148.381Z" fill="#383838"/>
<path d="M1193.72 60.0044C1203.94 77.397 1209.04 96.5289 1209.04 117.4C1209.04 137.836 1203.94 156.751 1193.72 174.143C1183.93 191.536 1170.13 205.45 1152.3 215.886C1134.04 226.321 1114.91 231.539 1094.91 231.539C1074.03 231.539 1055.01 226.321 1037.84 215.886C1020.44 205.45 1006.64 191.536 996.42 174.143C985.984 156.751 980.766 137.836 980.766 117.4C980.766 96.7463 985.876 77.7232 996.094 60.3306C1006.31 42.5032 1020.23 28.4804 1037.84 18.2622C1055.23 8.04406 1074.25 2.93498 1094.91 2.93498C1115.56 2.93498 1134.58 8.04406 1151.97 18.2622C1169.58 28.4804 1183.5 42.3944 1193.72 60.0044ZM1147.08 148.381C1152.3 138.162 1154.91 127.401 1154.91 116.096C1154.91 105.443 1152.19 95.4419 1146.76 86.0934C1141.54 76.7448 1134.36 69.2443 1125.23 63.5917C1115.89 57.9391 1105.78 55.1128 1094.91 55.1128C1084.04 55.1128 1073.93 57.9391 1064.58 63.5917C1055.45 69.2443 1048.16 76.7448 1042.73 86.0934C1037.29 95.4419 1034.57 105.877 1034.57 117.4C1034.57 128.488 1037.18 138.815 1042.4 148.381C1047.62 157.512 1055.01 165.012 1064.58 170.882C1074.14 176.535 1084.25 179.361 1094.91 179.361C1105.78 179.361 1115.89 176.535 1125.23 170.882C1134.36 165.23 1141.65 157.729 1147.08 148.381Z" fill="#383838"/>
<path d="M1349.84 2.93498C1350.92 2.93498 1351.58 3.15239 1351.79 3.58722C1352.23 3.80462 1352.45 4.45684 1352.45 5.54388V52.1778C1352.45 53.917 1351.58 54.7867 1349.84 54.7867H1296.03V228.278C1296.03 228.93 1295.7 229.582 1295.05 230.235C1294.62 230.669 1294.07 230.887 1293.42 230.887H1244.18C1243.31 230.887 1242.66 230.669 1242.22 230.235C1241.79 229.582 1241.57 228.93 1241.57 228.278V55.1128H1188.09C1187.43 55.1128 1186.78 54.8954 1186.13 54.4606C1185.7 53.8083 1185.48 53.1561 1185.48 52.5039V5.54388C1185.48 4.67424 1185.7 4.02202 1186.13 3.58722C1186.78 3.15239 1187.43 2.93498 1188.09 2.93498H1349.84Z" fill="#383838"/>
</svg>
