<svg width="386" height="233" viewBox="0 0 386 233" fill="none" xmlns="http://www.w3.org/2000/svg">
<path d="M385.816 162.986C385.816 174.564 382.814 185.713 376.81 196.434C370.807 206.94 361.802 215.623 349.795 222.484C337.788 229.345 323.101 232.776 305.734 232.776C284.079 232.776 263.924 228.059 245.271 218.625C243.984 217.982 243.127 217.124 242.698 216.052C242.483 214.98 242.483 214.23 242.698 213.801L259.1 177.458C259.314 177.244 259.636 176.601 260.065 175.529C260.494 174.457 261.459 173.599 262.959 172.956C264.031 172.956 266.604 173.706 270.678 175.207C277.539 177.351 283.65 179.067 289.01 180.353C294.37 181.639 300.267 182.283 306.699 182.283C313.774 182.283 320.207 181.211 325.996 179.067C331.999 176.922 335.001 172.956 335.001 167.167C335.001 165.88 334.894 164.916 334.679 164.272C334.036 160.199 331.141 156.339 325.996 152.694C321.064 149.049 313.131 144.225 302.196 138.222C289.76 131.575 279.469 125.464 271.321 119.89C263.388 114.315 256.313 107.561 250.095 99.6281C244.091 91.4805 240.875 82.1538 240.446 71.6477C239.589 47.8484 246.557 30.0524 261.351 18.26C276.36 6.25308 295.442 0.249634 318.598 0.249634C335.751 0.249634 353.011 3.46576 370.378 9.89802C371.45 10.1124 372.201 10.6484 372.629 11.5061C373.273 12.3637 373.487 13.2214 373.273 14.079L360.408 53.6374C359.551 55.9959 358.907 57.3896 358.478 57.8184C358.05 58.2472 357.085 58.3544 355.584 58.14C349.366 55.3527 342.398 53.1014 334.679 51.3861C327.175 49.4564 320.099 48.4916 313.453 48.4916C306.806 48.4916 301.446 49.6708 297.372 52.0293C293.298 54.3878 291.261 58.14 291.261 63.2858C291.261 65.2155 291.369 66.7163 291.583 67.7884C292.441 72.0766 295.335 75.9359 300.267 79.3665C305.198 82.797 313.131 87.514 324.066 93.5174C336.716 99.9497 347.115 105.953 355.262 111.528C363.624 117.102 370.807 124.178 376.81 132.754C382.814 141.331 385.816 151.408 385.816 162.986Z" fill="black"/>
<path d="M302.957 1.95668C303.392 2.82631 303.501 3.58723 303.283 4.23945L208.711 228.278C208.276 229.582 207.515 230.235 206.428 230.235C205.559 230.235 204.798 229.691 204.146 228.604L148.707 111.204L93.5939 228.604C93.1591 229.691 92.3982 230.235 91.3111 230.235C90.2241 230.235 89.4632 229.582 89.0284 228.278L0.326111 3.91334L0 2.60889C0 1.73926 0.217407 1.08704 0.652222 0.652233C1.30444 0.217411 1.95667 0 2.60889 0H55.1128C56.1998 0 56.9608 0.652226 57.3956 1.95668L96.5289 108.595L149.685 1.63057C150.337 0.543524 151.098 0 151.968 0C153.055 0 153.816 0.543524 154.251 1.63057L201.211 108.595L245.562 2.60889C245.562 2.39149 245.67 2.17408 245.888 1.95668C246.105 1.73928 246.214 1.63057 246.214 1.63057C246.866 0.978346 247.627 0.652233 248.497 0.652233H300.675C301.327 0.652233 301.979 0.978346 302.631 1.63057L302.957 1.95668Z" fill="#FC4D33"/>
</svg>
