<svg width="1353" height="236" viewBox="0 0 1353 236" fill="none" xmlns="http://www.w3.org/2000/svg">
<path d="M303.305 5.00496C303.74 5.87459 303.849 6.63551 303.631 7.28772L209.059 231.326C208.624 232.631 207.863 233.283 206.776 233.283C205.907 233.283 205.146 232.739 204.493 231.652L149.054 114.252L93.9417 231.652C93.5069 232.739 92.746 233.283 91.6589 233.283C90.5719 233.283 89.811 232.631 89.3761 231.326L0.67389 6.96162L0.347778 5.65717C0.347778 4.78754 0.565186 4.13532 1 3.70051C1.65222 3.26569 2.30445 3.04827 2.95667 3.04827H55.4606C56.5476 3.04827 57.3085 3.7005 57.7434 5.00496L96.8767 111.643L150.033 4.67885C150.685 3.5918 151.446 3.04827 152.316 3.04827C153.403 3.04827 154.164 3.5918 154.598 4.67885L201.558 111.643L245.91 5.65717C245.91 5.43976 246.018 5.22236 246.236 5.00496C246.453 4.78755 246.562 4.67885 246.562 4.67885C247.214 4.02662 247.975 3.70051 248.845 3.70051H301.022C301.675 3.70051 302.327 4.02662 302.979 4.67885L303.305 5.00496Z" fill="#FC4D33"/>
<path d="M344.984 90.4461L406.293 90.12C407.162 90.12 407.814 90.4461 408.249 91.0983C408.901 91.5331 409.228 92.0766 409.228 92.7289V140.667C409.228 141.319 408.901 141.972 408.249 142.624C407.814 143.059 407.271 143.276 406.619 143.276L344.984 143.602V178.17H418.359C420.315 178.17 421.294 179.04 421.294 180.779V228.391C421.294 230.13 420.315 231 418.359 231H292.48C291.828 231 291.175 230.783 290.523 230.348C290.088 229.913 289.871 229.261 289.871 228.391V5.33106C289.871 4.67884 290.088 4.13532 290.523 3.70051C291.175 3.04828 291.828 2.72217 292.48 2.72217H418.359C419.228 2.72217 419.881 3.04828 420.315 3.70051C420.968 4.13532 421.294 4.67884 421.294 5.33106V53.2694C421.294 53.9216 420.968 54.5739 420.315 55.2261C419.881 55.6609 419.228 55.8783 418.359 55.8783H344.984V90.4461Z" fill="#FC4D33"/>
<path d="M594.474 165.012C594.474 176.752 591.43 188.057 585.343 198.928C579.255 209.581 570.124 218.386 557.949 225.343C545.774 232.3 530.882 235.778 513.272 235.778C491.314 235.778 470.878 230.995 451.963 221.43C450.659 220.777 449.789 219.908 449.354 218.821C449.137 217.734 449.137 216.973 449.354 216.538L465.986 179.687C466.203 179.47 466.529 178.818 466.964 177.731C467.399 176.644 468.377 175.774 469.899 175.122C470.986 175.122 473.595 175.883 477.726 177.404C484.683 179.579 490.879 181.318 496.314 182.622C501.749 183.927 507.728 184.579 514.25 184.579C521.425 184.579 527.947 183.492 533.817 181.318C539.904 179.144 542.948 175.122 542.948 169.252C542.948 167.947 542.839 166.969 542.622 166.317C541.97 162.186 539.035 158.273 533.817 154.577C528.817 150.881 520.773 145.989 509.685 139.902C497.075 133.162 486.64 126.966 478.378 121.313C470.334 115.661 463.16 108.812 456.855 100.768C450.767 92.5069 447.506 83.0496 447.071 72.3967C446.202 48.2645 453.268 30.2196 468.269 18.2622C483.487 6.08741 502.836 0 526.316 0C543.709 0 561.21 3.26111 578.82 9.78333C579.907 10.0007 580.668 10.5442 581.103 11.4139C581.755 12.2835 581.973 13.1531 581.755 14.0228L568.711 54.1344C567.841 56.5259 567.189 57.9391 566.754 58.3739C566.319 58.8087 565.341 58.9174 563.819 58.7C557.514 55.8737 550.449 53.5909 542.622 51.8517C535.013 49.895 527.838 48.9167 521.099 48.9167C514.359 48.9167 508.924 50.1124 504.793 52.5039C500.662 54.8954 498.597 58.7 498.597 63.9178C498.597 65.8745 498.706 67.3963 498.923 68.4833C499.793 72.8315 502.728 76.7448 507.728 80.2234C512.729 83.7019 520.773 88.4848 531.86 94.5723C544.687 101.094 555.232 107.182 563.493 112.834C571.972 118.487 579.255 125.662 585.343 134.358C591.43 143.054 594.474 153.272 594.474 165.012Z" fill="white"/>
<path d="M771.269 2.60888C771.922 2.60888 772.574 2.93499 773.226 3.58722C773.661 4.02202 773.878 4.67424 773.878 5.54388V228.278C773.878 229.147 773.552 229.8 772.9 230.235C772.465 230.669 771.922 230.887 771.269 230.887H717.461C715.722 230.887 714.852 230.017 714.852 228.278V141.858H652.565V228.278C652.565 229.147 652.239 229.8 651.587 230.235C651.152 230.669 650.608 230.887 649.956 230.887H596.148C595.495 230.887 594.843 230.669 594.191 230.235C593.756 229.8 593.539 229.147 593.539 228.278V5.54388C593.539 4.67424 593.756 4.02202 594.191 3.58722C594.843 2.93499 595.495 2.60888 596.148 2.60888H649.956C650.608 2.60888 651.152 2.93499 651.587 3.58722C652.239 4.02202 652.565 4.67424 652.565 5.54388V91.6372H714.852V5.21777C714.852 4.56554 715.069 4.02202 715.504 3.58722C715.939 2.93499 716.591 2.60888 717.461 2.60888H771.269Z" fill="white"/>
<path d="M979.545 60.0044C989.763 77.397 994.872 96.5289 994.872 117.4C994.872 137.836 989.763 156.751 979.545 174.143C969.762 191.536 955.956 205.45 938.129 215.886C919.867 226.321 900.735 231.539 880.733 231.539C859.862 231.539 840.839 226.321 823.664 215.886C806.271 205.45 792.466 191.536 782.248 174.143C771.812 156.751 766.594 137.836 766.594 117.4C766.594 96.7463 771.703 77.7232 781.921 60.3306C792.14 42.5032 806.054 28.4804 823.664 18.2622C841.056 8.04406 860.079 2.93498 880.733 2.93498C901.387 2.93498 920.41 8.04406 937.803 18.2622C955.413 28.4804 969.327 42.3944 979.545 60.0044ZM932.911 148.381C938.129 138.162 940.738 127.401 940.738 116.096C940.738 105.443 938.02 95.4419 932.585 86.0934C927.367 76.7448 920.193 69.2443 911.062 63.5917C901.713 57.9391 891.604 55.1128 880.733 55.1128C869.863 55.1128 859.753 57.9391 850.405 63.5917C841.274 69.2443 833.991 76.7448 828.555 86.0934C823.12 95.4419 820.403 105.877 820.403 117.4C820.403 128.488 823.011 138.815 828.229 148.381C833.447 157.512 840.839 165.012 850.405 170.882C859.971 176.535 870.08 179.361 880.733 179.361C891.604 179.361 901.713 176.535 911.062 170.882C920.193 165.23 927.476 157.729 932.911 148.381Z" fill="white"/>
<path d="M1194.06 60.0044C1204.28 77.397 1209.39 96.5289 1209.39 117.4C1209.39 137.836 1204.28 156.751 1194.06 174.143C1184.28 191.536 1170.48 205.45 1152.65 215.886C1134.39 226.321 1115.25 231.539 1095.25 231.539C1074.38 231.539 1055.36 226.321 1038.18 215.886C1020.79 205.45 1006.99 191.536 996.768 174.143C986.332 156.751 981.114 137.836 981.114 117.4C981.114 96.7463 986.223 77.7232 996.441 60.3306C1006.66 42.5032 1020.57 28.4804 1038.18 18.2622C1055.58 8.04406 1074.6 2.93498 1095.25 2.93498C1115.91 2.93498 1134.93 8.04406 1152.32 18.2622C1169.93 28.4804 1183.85 42.3944 1194.06 60.0044ZM1147.43 148.381C1152.65 138.162 1155.26 127.401 1155.26 116.096C1155.26 105.443 1152.54 95.4419 1147.1 86.0934C1141.89 76.7448 1134.71 69.2443 1125.58 63.5917C1116.23 57.9391 1106.12 55.1128 1095.25 55.1128C1084.38 55.1128 1074.27 57.9391 1064.92 63.5917C1055.79 69.2443 1048.51 76.7448 1043.08 86.0934C1037.64 95.4419 1034.92 105.877 1034.92 117.4C1034.92 128.488 1037.53 138.815 1042.75 148.381C1047.97 157.512 1055.36 165.012 1064.92 170.882C1074.49 176.535 1084.6 179.361 1095.25 179.361C1106.12 179.361 1116.23 176.535 1125.58 170.882C1134.71 165.23 1142 157.729 1147.43 148.381Z" fill="white"/>
<path d="M1350.19 2.93498C1351.27 2.93498 1351.92 3.15239 1352.14 3.58722C1352.58 3.80462 1352.79 4.45684 1352.79 5.54388V52.1778C1352.79 53.917 1351.92 54.7867 1350.19 54.7867H1296.38V228.278C1296.38 228.93 1296.05 229.582 1295.4 230.235C1294.96 230.669 1294.42 230.887 1293.77 230.887H1244.53C1243.66 230.887 1243 230.669 1242.57 230.235C1242.13 229.582 1241.92 228.93 1241.92 228.278V55.1128H1188.43C1187.78 55.1128 1187.13 54.8954 1186.48 54.4606C1186.04 53.8083 1185.83 53.1561 1185.83 52.5039V5.54388C1185.83 4.67424 1186.04 4.02202 1186.48 3.58722C1187.13 3.15239 1187.78 2.93498 1188.43 2.93498H1350.19Z" fill="white"/>
</svg>
