<?xml version="1.0" encoding="utf-8"?>
<!-- Generator: Adobe Illustrator 15.0.0, SVG Export Plug-In . SVG Version: 6.00 Build 0)  -->
<!DOCTYPE svg PUBLIC "-//W3C//DTD SVG 1.1//EN" "http://www.w3.org/Graphics/SVG/1.1/DTD/svg11.dtd">
<svg version="1.1" id="Layer_1" xmlns="http://www.w3.org/2000/svg" xmlns:xlink="http://www.w3.org/1999/xlink" x="0px" y="0px"
	 width="160px" height="34px" viewBox="0 0 160 34" enable-background="new 0 0 160 34" xml:space="preserve">
<path fill="#FFFFFF" d="M16.211,21.796c0,2.05,0.857,3.897,2.226,5.204H8.287C3.71,27,0,23.221,0,18.557
	c0-3.646,2.842-7.069,5.829-7.209C5.98,5.054,11.153,0,17.512,0c5.325,0,9.817,3.641,11.227,8.489
	c-4.512,0.083-8.117,3.765-8.815,7.341C17.812,16.793,16.211,19.207,16.211,21.796z M35.736,15.638
	c-0.849-2.965-3.59-5.136-6.842-5.136c-3.87,0-7.018,3.076-7.11,6.905c-1.817,0.085-3.546,2.168-3.546,4.388
	c0,2.837,2.258,5.137,5.043,5.137h11.92c3.068,0,5.556-2.533,5.556-5.66C40.755,18.331,38.552,15.913,35.736,15.638z"/>
<g>
	<path fill="#FFFFFF" d="M69.24,11.248c0.309,0.213,0.688,0.32,1.136,0.32c0.576,0,1.109-0.208,1.6-0.624
		c0.49-0.416,0.736-0.848,0.736-1.296c0-0.789-0.459-1.184-1.376-1.184c-0.619,0-1.2,0.187-1.744,0.56
		c-0.544,0.374-0.816,0.806-0.816,1.296C68.776,10.726,68.931,11.035,69.24,11.248z"/>
	<path fill="#FFFFFF" d="M87.83,25.104c0.639-1.705,1.197-3.455,1.676-5.246c0.479-1.793,0.729-2.956,0.75-3.488
		c-0.596-0.085-0.936-0.128-1.021-0.128c-0.426,0-0.786,0.144-1.084,0.432c-0.299,0.288-0.489,0.581-0.575,0.88
		c-0.084,0.299-0.164,0.668-0.238,1.104c-0.073,0.438-0.123,0.553-0.144,0.596C85.576,21.834,84.172,23,82.98,23h-0.031
		c-0.596,0-0.895-0.271-0.895-1.061c0-0.746,0.239-1.707,0.719-3.01c0.479-1.302,0.92-2.199,1.324-2.753
		c-0.086-0.256-0.341-0.481-0.767-0.705c-0.427-0.224-0.744-0.329-0.957-0.329c-0.519,0-1.144,0.879-1.875,2.628
		c-0.734,1.75-1.1,3.203-1.1,4.354c0,0.041,0.008,0.077,0.01,0.118c-0.356,0.426-0.723,0.826-1.114,1.168
		c-1.12,0.979-2.213,1.467-3.28,1.467c-0.597,0-1.035-0.182-1.312-0.548c-0.277-0.365-0.416-0.988-0.416-1.87
		c0-1.676,0.363-3.835,1.472-6.479c1.749,0,3.24-0.105,6.24-0.319v-1.12c-1,0.149-3.212,0.225-5.664,0.225
		c0.448-0.896,1.14-1.974,1.888-3.232C77.97,10.277,78.594,9.27,79,8.512c0.406-0.758,0.632-1.328,0.632-1.712
		c0-0.277-0.08-0.501-0.26-0.672c-0.182-0.17-0.384-0.256-0.619-0.256c-0.684,0-1.57,0.864-2.668,2.592
		c-1.099,1.728-2.358,3.798-3.318,6.208C72.254,14.63,72,14.576,71,14.513v1.048c0,0.078,0.797,0.166,1.352,0.264
		c-1.029,2.815-1.491,5.036-1.618,6.667c-1.056,1.312-2.058,1.973-3.122,1.973c-0.485,0-0.813-0.117-1.045-0.354
		c-0.232-0.234-0.333-0.685-0.333-1.348c0-0.812,0.28-1.781,0.828-2.904c0.548-1.125,1.095-2.131,1.636-3.019
		c0.54-0.889,0.813-1.472,0.813-1.75c0-0.299-0.09-0.529-0.271-0.689c-0.181-0.16-0.409-0.241-0.685-0.241
		c-0.747,0-1.505,0.587-2.273,1.76c-0.769,1.174-1.377,2.459-1.825,3.856c-0.296,0.921-0.484,1.713-0.585,2.396
		c-0.62,0.76-1.323,1.462-2.12,2.102c-1.675,1.342-3.344,2.014-5.008,2.014c-1.558,0-2.72-0.586-3.488-1.758
		s-1.152-2.609-1.152-4.314c0-2.258,0.555-4.707,1.664-7.349c1.109-2.642,2.506-4.868,4.192-6.68
		c1.685-1.811,3.274-2.716,4.768-2.716c0.96,0,1.44,0.416,1.44,1.246c0,0.767-0.379,1.768-1.136,3.004
		c-0.758,1.236-1.542,2.301-2.352,3.195c0.341,0.661,0.778,0.991,1.312,0.991c0.917,0,1.802-0.81,2.656-2.429
		c0.853-1.619,1.28-3.121,1.28-4.505c0-1.961-1.11-2.942-3.328-2.942c-2.133,0-4.262,0.896-6.384,2.689
		c-2.123,1.793-3.856,4.087-5.2,6.883C49.672,14.401,49,17.177,49,19.93c0,2.174,0.592,4.032,1.776,5.577s2.917,2.317,5.2,2.317
		c2.154,0,4.133-0.729,5.936-2.189c0.688-0.558,1.319-1.195,1.922-1.875c0.094,0.562,0.325,1.045,0.693,1.44
		c0.495,0.532,1.195,0.8,2.1,0.8c1.316,0,2.549-0.521,3.696-1.562c0.191-0.174,0.369-0.375,0.549-0.572
		c0.099,0.759,0.357,1.359,0.784,1.797c0.555,0.566,1.323,0.852,2.304,0.852c1.493,0,2.933-0.628,4.319-1.883
		c0.467-0.422,0.894-0.902,1.303-1.408c0.139,0.379,0.353,0.689,0.659,0.922c0.562,0.429,1.198,0.642,1.909,0.642
		c1.427,0,2.957-1.162,4.597-3.488c-0.66,2.41-1.17,4.072-1.531,4.986l-1.733,0.86c-0.387,0.17-0.938,0.461-1.654,0.875
		c-0.717,0.414-1.246,0.793-1.59,1.133c-0.342,0.341-0.665,0.754-0.963,1.242c-0.3,0.488-0.449,0.988-0.449,1.498
		c0,0.691,0.215,1.217,0.645,1.573C79.898,33.82,80.414,34,81.014,34c2.113,0,4.246-2.562,6.402-7.688
		c3.256-1.446,5.287-3.504,6.096-6.17l-0.545-0.449C91.967,22.298,90.256,24.102,87.83,25.104z M82.457,31.43
		c-0.729,0.903-1.318,1.354-1.768,1.354c-0.413,0-0.618-0.298-0.618-0.894c0-1.295,1.512-2.699,4.536-4.207
		C83.9,29.277,83.184,30.525,82.457,31.43z"/>
	<path fill="#FFFFFF" d="M115.814,4.512c0.832-0.053,1.787-0.229,2.865-0.528c1.075-0.298,1.913-0.725,2.512-1.28
		c-1.047,0-2.689-0.106-4.928-0.32C113.703,2.128,111.559,2,109.83,2c-1.707,0-3.131,0.091-4.273,0.272
		c-1.145,0.182-2.104,0.528-2.881,1.04s-1.207,1.195-1.293,2.048c2.693-0.469,5.809-0.725,9.344-0.768l-1.408,3.328l-1.727,4.128
		c-0.428,1.024-0.953,2.363-1.578,4.016c-0.625,1.654-1.17,3.185-1.635,4.593c-0.738,2.282-1.107,3.851-1.107,4.704
		c0.041,1.643,1.076,2.464,3.104,2.464c-0.063-0.32-0.097-0.63-0.097-0.929c0-0.619,0.054-1.265,0.16-1.937
		c0.105-0.672,0.224-1.265,0.353-1.774c0.127-0.514,0.362-1.42,0.703-2.722c1.707-6.271,3.437-11.562,5.187-15.872
		C113.938,4.592,114.982,4.565,115.814,4.512z"/>
	<path fill="#FFFFFF" d="M159.27,19.536c-1.065,2.048-2.324,3.254-3.774,3.614c0.086-0.512,0.129-0.947,0.129-1.312
		c0-1.024-0.312-2.405-0.931-4.144c-0.616-1.738-0.928-2.896-0.928-3.473c0-0.213,0.027-0.441,0.08-0.688
		c0.053-0.245,0.08-0.4,0.08-0.464c-0.043-0.427-0.643-0.64-1.111-0.64c-0.979,0-1.813,0.779-1.813,2.336v0.319
		c0,1.515-1.379,2.976-2.731,4.384c-0.043,0.043-0.102,0.15-0.516,0.32c-0.416,0.171-0.671,0.447-0.938,0.832
		c-0.262,0.379-0.353,0.938-0.355,1.669c-0.123,0.121-0.214,0.241-0.347,0.362c-1.152,1.057-2.187,1.584-3.126,1.584
		c-0.543,0-0.809-0.244-0.809-0.735c0-0.341,0.283-1.108,0.848-2.304c0.566-1.196,0.85-2.133,0.85-2.816
		c0-0.617-0.177-1.178-0.536-1.68c-0.358-0.501-0.756-0.88-1.188-1.137c-0.434-0.256-0.836-0.516-1.205-0.783
		c-0.369-0.267-0.564-0.496-0.586-0.688c0-0.043,0.08-0.229,0.24-0.561c0.16-0.331,0.239-0.539,0.239-0.624
		c0-0.17-0.079-0.384-0.237-0.64c-0.156-0.256-0.357-0.384-0.601-0.384c-0.299,0-0.606,0.245-0.926,0.736
		c-0.317,0.491-0.478,1.014-0.478,1.568c0,0.363,0.101,0.65,0.299,0.863c-0.746,2.112-1.61,4.043-2.592,5.793l0.402,0.776
		c-0.439,0.604-0.914,1.312-1.422,1.776C134.252,24.354,133.383,25,132.68,25h-0.033c-0.555,0-0.832-0.535-0.832-1.262
		c0-0.596,0.152-1.471,0.459-2.452c0.308-0.979,0.615-1.894,0.929-2.651c0.312-0.757,0.469-1.179,0.469-1.222
		c0-0.512-0.586-0.885-1.76-1.099c-0.47,1.046-0.986,2.106-1.552,3.194s-1.254,2.158-2.063,3.215
		c-0.812,1.057-1.494,1.582-2.049,1.582c-0.64,0-0.959-0.641-0.959-1.922c0-0.895,0.239-1.963,0.721-3.199
		c0.479-1.235,0.943-2.188,1.392-2.849c-0.555-0.554-1.055-0.832-1.504-0.832c-0.533,0-1.152,0.892-1.855,2.673
		c-0.467,1.18-0.764,2.221-0.922,3.152c-0.053,0.035-0.1,0.076-0.154,0.107c-0.682,0.396-1.322,0.596-1.92,0.596
		c-0.35,0-0.654-0.064-0.916-0.193c1.498-2.164,2.248-3.984,2.248-5.465c0-0.778-0.215-1.412-0.643-1.898
		c-0.428-0.487-1.092-0.731-1.994-0.731c-1.012,0-1.795,0.323-2.354,0.972c-0.559,0.649-0.899,1.469-1.026,2.463
		c-0.404-0.178-0.734-0.267-0.99-0.267c-0.939,0-1.812,0.673-2.623,2.018c-0.812,1.344-1.217,2.721-1.217,4.129
		c0,0.854,0.191,1.567,0.576,2.144c0.385,0.575,1.022,0.862,1.92,0.862c1.774,0,3.539-1.063,5.293-3.191
		c0.584,0.188,1.125,0.279,1.621,0.279c0.707,0,1.391-0.211,2.053-0.606c0,0.041-0.008,0.087-0.008,0.127
		c0,0.896,0.233,1.675,0.705,2.336c0.469,0.661,1.055,0.992,1.76,0.992c0.49,0,1.002-0.196,1.535-0.592s0.971-0.812,1.312-1.248
		c0.343-0.437,0.746-1.019,1.218-1.744c0,0.405,0.004,0.735,0.016,0.992c0.01,0.256,0.059,0.565,0.143,0.928
		c0.086,0.363,0.203,0.651,0.354,0.864c0.148,0.213,0.367,0.4,0.656,0.561c0.287,0.159,0.633,0.239,1.039,0.239
		c1.195,0,2.432-0.581,3.713-1.744c1.279-1.161,2.281-2.608,3.008-4.336l-0.428-0.342c0.646-1.242,1.228-2.502,1.723-3.786
		c1.058,0.555,1.584,1.237,1.584,2.048c0,0.491-0.299,1.408-0.895,2.752c-0.598,1.345-0.896,2.325-0.896,2.944
		c0,0.709,0.242,1.275,0.728,1.699s1.117,0.637,1.896,0.637c1.377,0,2.752-0.587,4.13-1.76c0.149-0.129,0.278-0.266,0.42-0.397
		c0.174,0.618,0.452,1.188,0.868,1.693c0.712,0.864,1.81,1.296,3.294,1.296c1.008,0,1.897-0.219,2.672-0.656
		c0.771-0.438,1.33-1.082,1.674-1.936c2.09-0.32,3.572-1.749,4.447-4.288L159.27,19.536z M115.176,24.434
		c-0.727,0-1.088-0.49-1.088-1.468c0-0.916,0.271-2.009,0.816-3.276c0.543-1.269,1.018-2.008,1.424-2.222
		c0.061,2.076,0.68,3.65,1.855,4.72C116.93,23.686,115.928,24.434,115.176,24.434z M119.025,21.164
		c-0.279-0.344-0.506-0.831-0.68-1.462c-0.173-0.634-0.259-1.195-0.259-1.688c0-0.835,0.205-1.555,0.615-2.154
		c0.409-0.599,0.84-0.9,1.293-0.9c0.604,0,0.907,0.472,0.907,1.414C120.904,17.789,120.277,19.386,119.025,21.164z M150.641,25.266
		c-0.74,0-1.322-0.293-1.744-0.882c-0.424-0.586-0.635-1.264-0.635-2.03c0-0.221,0.033-0.392,0.088-0.527
		c0.058-0.083,0.115-0.166,0.17-0.25c0.054-0.042,0.115-0.072,0.188-0.087c0.426,0.555,0.99,1.071,1.692,1.552
		c0.703,0.48,1.472,0.807,2.302,0.977C152.271,24.85,151.586,25.266,150.641,25.266z M152.963,23.057
		c-0.832-0.191-1.58-0.539-2.242-1.039c-0.652-0.494-1.156-1.045-1.518-1.651c0.021-0.046,0.049-0.091,0.07-0.138
		c0.785-0.854,1.674-2.146,2.676-3.893c0.043,0.192,0.162,0.656,0.359,1.393c0.196,0.735,0.327,1.26,0.393,1.567
		c0.066,0.31,0.143,0.736,0.23,1.28c0.086,0.544,0.131,1.04,0.131,1.486C153.062,22.534,153.029,22.864,152.963,23.057z"/>
</g>
</svg>
